<mxfile host="app.diagrams.net" agent="Mozilla/5.0 (Windows NT 10.0; Win64; x64; rv:131.0) Gecko/20100101 Firefox/131.0" version="24.7.17">
  <diagram name="Сторінка-1" id="jMDWFUlcRsNJgomPdqtE">
    <mxGraphModel dx="1034" dy="495" grid="0" gridSize="10" guides="1" tooltips="1" connect="1" arrows="1" fold="1" page="1" pageScale="1" pageWidth="827" pageHeight="1169" math="0" shadow="0">
      <root>
        <mxCell id="0" />
        <mxCell id="1" parent="0" />
        <mxCell id="frInZtr-pcbYxKUoVRqP-9" style="edgeStyle=orthogonalEdgeStyle;rounded=0;orthogonalLoop=1;jettySize=auto;html=1;exitX=0.5;exitY=1;exitDx=0;exitDy=0;" parent="1" source="frInZtr-pcbYxKUoVRqP-1" edge="1">
          <mxGeometry relative="1" as="geometry">
            <mxPoint x="450" y="100" as="targetPoint" />
          </mxGeometry>
        </mxCell>
        <mxCell id="frInZtr-pcbYxKUoVRqP-1" value="Start" style="ellipse;whiteSpace=wrap;html=1;" parent="1" vertex="1">
          <mxGeometry x="390" y="20" width="120" height="60" as="geometry" />
        </mxCell>
        <mxCell id="frInZtr-pcbYxKUoVRqP-10" style="edgeStyle=orthogonalEdgeStyle;rounded=0;orthogonalLoop=1;jettySize=auto;html=1;exitX=0.5;exitY=1;exitDx=0;exitDy=0;entryX=0.5;entryY=0;entryDx=0;entryDy=0;" parent="1" target="frInZtr-pcbYxKUoVRqP-4" edge="1">
          <mxGeometry relative="1" as="geometry">
            <mxPoint x="450" y="170" as="sourcePoint" />
          </mxGeometry>
        </mxCell>
        <mxCell id="frInZtr-pcbYxKUoVRqP-11" style="edgeStyle=orthogonalEdgeStyle;rounded=0;orthogonalLoop=1;jettySize=auto;html=1;exitX=0.5;exitY=1;exitDx=0;exitDy=0;entryX=0.5;entryY=0;entryDx=0;entryDy=0;" parent="1" source="frInZtr-pcbYxKUoVRqP-4" edge="1">
          <mxGeometry relative="1" as="geometry">
            <mxPoint x="450" y="270" as="targetPoint" />
          </mxGeometry>
        </mxCell>
        <mxCell id="frInZtr-pcbYxKUoVRqP-4" value="calculating one, two, three, four, five, result" style="rounded=0;whiteSpace=wrap;html=1;" parent="1" vertex="1">
          <mxGeometry x="365" y="190" width="170" height="60" as="geometry" />
        </mxCell>
        <mxCell id="frInZtr-pcbYxKUoVRqP-13" style="edgeStyle=orthogonalEdgeStyle;rounded=0;orthogonalLoop=1;jettySize=auto;html=1;exitX=0.5;exitY=1;exitDx=0;exitDy=0;entryX=0.5;entryY=0;entryDx=0;entryDy=0;" parent="1" source="frInZtr-pcbYxKUoVRqP-6" target="frInZtr-pcbYxKUoVRqP-7" edge="1">
          <mxGeometry relative="1" as="geometry" />
        </mxCell>
        <mxCell id="frInZtr-pcbYxKUoVRqP-6" value="calculating one2, two2, three2, four2, five2, result2" style="rounded=0;whiteSpace=wrap;html=1;" parent="1" vertex="1">
          <mxGeometry x="365" y="360" width="170" height="60" as="geometry" />
        </mxCell>
        <mxCell id="frInZtr-pcbYxKUoVRqP-14" style="edgeStyle=orthogonalEdgeStyle;rounded=0;orthogonalLoop=1;jettySize=auto;html=1;exitX=0.5;exitY=1;exitDx=0;exitDy=0;entryX=0.5;entryY=0;entryDx=0;entryDy=0;" parent="1" source="frInZtr-pcbYxKUoVRqP-7" target="frInZtr-pcbYxKUoVRqP-8" edge="1">
          <mxGeometry relative="1" as="geometry" />
        </mxCell>
        <mxCell id="frInZtr-pcbYxKUoVRqP-7" value="output result, result2" style="shape=parallelogram;perimeter=parallelogramPerimeter;whiteSpace=wrap;html=1;fixedSize=1;" parent="1" vertex="1">
          <mxGeometry x="350" y="440" width="200" height="58.33" as="geometry" />
        </mxCell>
        <mxCell id="frInZtr-pcbYxKUoVRqP-8" value="Finish" style="ellipse;whiteSpace=wrap;html=1;" parent="1" vertex="1">
          <mxGeometry x="390" y="520" width="120" height="60" as="geometry" />
        </mxCell>
        <mxCell id="pgmEiAjJ3A_rdWyrK1y7-2" value="&#xa;&lt;div&gt;init double a1 = 100, b1 = 0.01,&lt;/div&gt;&lt;div&gt;one, two, three, four, five, result&lt;br&gt;&lt;/div&gt;&#xa;&#xa;" style="rounded=0;whiteSpace=wrap;html=1;" vertex="1" parent="1">
          <mxGeometry x="356" y="102" width="188" height="67" as="geometry" />
        </mxCell>
        <mxCell id="pgmEiAjJ3A_rdWyrK1y7-4" style="edgeStyle=orthogonalEdgeStyle;rounded=0;orthogonalLoop=1;jettySize=auto;html=1;exitX=0.5;exitY=1;exitDx=0;exitDy=0;" edge="1" parent="1" source="pgmEiAjJ3A_rdWyrK1y7-3" target="frInZtr-pcbYxKUoVRqP-6">
          <mxGeometry relative="1" as="geometry" />
        </mxCell>
        <mxCell id="pgmEiAjJ3A_rdWyrK1y7-3" value="&lt;div&gt;init float a2 = 100, b2 = 0.01,&lt;/div&gt;&lt;div&gt;one2, two2, three2, four2, five2, result2&lt;br&gt;&lt;/div&gt;" style="rounded=0;whiteSpace=wrap;html=1;" vertex="1" parent="1">
          <mxGeometry x="356" y="272" width="188" height="67" as="geometry" />
        </mxCell>
      </root>
    </mxGraphModel>
  </diagram>
</mxfile>
